<!DOCTYPE svg PUBLIC "-//W3C//DTD SVG 1.1//EN" "http://www.w3.org/Graphics/SVG/1.1/DTD/svg11.dtd">
<!-- Uploaded to: SVG Repo, www.svgrepo.com, Transformed by: SVG Repo Mixer Tools -->
<svg height="800px" width="800px" version="1.1" id="Layer_1" xmlns="http://www.w3.org/2000/svg" xmlns:xlink="http://www.w3.org/1999/xlink" viewBox="0 0 512 512" xml:space="preserve" fill="#000000">
<g id="SVGRepo_bgCarrier" stroke-width="0"/>
<g id="SVGRepo_tracerCarrier" stroke-linecap="round" stroke-linejoin="round"/>
<g id="SVGRepo_iconCarrier"> <g> <path style="fill:#AA3827;" d="M457.697,277.156c-12.853,0-23.273,10.42-23.273,23.273H77.576c0-12.853-10.42-23.273-23.273-23.273 s-23.273,10.42-23.273,23.273V480.97c0,12.853,10.42,23.273,23.273,23.273h403.394c12.853,0,23.273-10.42,23.273-23.273V300.429 C480.97,287.576,470.55,277.156,457.697,277.156z"/> <path style="fill:#AA3827;" d="M349.091,147.394H162.909c-12.853,0-23.273-10.42-23.273-23.273V31.03 c0-12.853,10.42-23.273,23.273-23.273h186.182c12.853,0,23.273,10.42,23.273,23.273v93.091 C372.364,136.974,361.944,147.394,349.091,147.394z M186.182,100.848h139.636V54.303H186.182V100.848z"/> </g> <g> <path style="fill:#672415;" d="M349.091,7.758H256v46.545h69.818v46.545H256v46.545h93.091c12.853,0,23.273-10.42,23.273-23.273 V31.03C372.364,18.178,361.944,7.758,349.091,7.758z"/> <path style="fill:#672415;" d="M457.697,277.156c-12.853,0-23.273,10.42-23.273,23.273H256v203.813h201.697 c12.853,0,23.273-10.42,23.273-23.273V300.429C480.97,287.576,470.55,277.156,457.697,277.156z"/> </g> <path style="fill:#B66D38;" d="M488.727,100.848H23.273C10.42,100.848,0,111.268,0,124.121v170.667 c0,11.248,8.045,20.885,19.108,22.897l170.667,31.03c12.649,2.301,24.762-6.088,27.06-18.733c0.254-1.399,0.357-2.79,0.36-4.164 h77.608c0.002,1.375,0.104,2.763,0.36,4.164c2.042,11.239,11.838,19.113,22.869,19.113c1.382,0,2.783-0.124,4.191-0.38 l170.667-31.03c11.065-2.012,19.11-11.649,19.11-22.897V124.121C512,111.268,501.58,100.848,488.727,100.848z"/> <path style="fill:#AA3827;" d="M488.727,100.848H256v224.97h38.805c0.002,1.375,0.104,2.763,0.36,4.164 c2.042,11.239,11.838,19.113,22.869,19.113c1.382,0,2.783-0.124,4.191-0.38l170.667-31.03C503.955,315.673,512,306.036,512,294.788 V124.121C512,111.268,501.58,100.848,488.727,100.848z"/> <path style="fill:#F4D371;" d="M318.061,256H193.939c-12.853,0-23.273,10.42-23.273,23.273v93.091 c0,12.853,10.42,23.273,23.273,23.273h124.121c12.853,0,23.273-10.42,23.273-23.273v-93.091C341.333,266.42,330.913,256,318.061,256 z"/> <path style="fill:#E9A35F;" d="M318.061,395.636c12.853,0,23.273-10.42,23.273-23.273v-93.091c0-12.853-10.42-23.273-23.273-23.273 H256v139.636H318.061z"/> </g>
</svg>