<?xml version="1.0" encoding="UTF-8"?>
<svg id="Layer_1" data-name="Layer 1" xmlns="http://www.w3.org/2000/svg" viewBox="0 0 400.25 87">
  <defs>
    <style>
      .cls-1 {
        fill: #272525;
        stroke-width: 0px;
      }
    </style>
  </defs>
  <path class="cls-1" d="M48.09,17.7c0-1.05-.33-1.83-.98-2.31-1.21-.9-3.06-.36-3.14-.33l-.1.02-.09.09s-.94.73-6.66,2.59c-5.1,1.67-15.28,3.03-20.17,3.68-2.62.35-2.95.4-3.1.49-.09.03-.25.07-.47.12-2.13.52-8.59,2.1-8.72,6.35-.17,5.7,8.64,9.29,9.64,9.67,3.29,1.27,4.1,1.22,5.84-.36.49-.45.74-.99.72-1.57-.04-1.18-1.14-2.11-1.27-2.21l-5.71-2.63c-.71-.29-2.65-1.28-3.07-2.35-.05-.12-.04-.23.03-.35.4-.75,2.39-1.42,3.23-1.6.52-.12,20.11-4.15,24.57-5.07-7.05,18.1-18.07,36.04-18.65,36.98-.23.25-1.39,1.66-1.23,3.14.08.76.49,1.41,1.22,1.91.61.42,1.23.63,1.86.63.19,0,.38-.02.58-.06,1.42-.29,2.49-1.59,3.13-2.62.68-1.09,6.66-12.12,7.96-14.61,1.37-2.6,12.83-25.59,12.91-25.77.06-.09,1.44-2.21,1.66-3.82Z"/>
  <path class="cls-1" d="M104.04,51.91c-1.63-1.22-3.36-.08-5.38,1.24-5.8,4.03-10,5.68-14.97,5.89-3.46.13-4.53-2.44-4.84-3.49.74-.2,2.74-.69,7.85-1.76,4.9-1.02,7.54-3.76,8.88-5.87.82-1.29,1.19-2.8,1.03-4.25-.24-2.15-1.56-5.74-7.52-5.64-8.13.13-12.99,7.42-14.05,9.96-.64,1.55-.95,2.74-1.19,3.7-.12.48-.23.91-.36,1.27-.71.65-4.5,3-10,6.21-.1.06-.18.1-.25.14,2.23-4.36,6.42-12.5,6.97-13.36.88-1.35,2.16-4.92.25-6.68-1.28-1.18-3.31-.8-6.04,1.14l-.1.07c-.27.19-2.67,2.11-6.57,5.23-4.72,3.78-10.6,8.49-11.36,9.02-.14.1-.25.16-.33.2.08-.13.21-.41.63-1.33.79-1.73,2.41-5.31,3.13-6.09,5.47-3.6,18.5-22.58,19.23-23.92,1.08-2,2.2-6.36,1.18-9.37-.47-1.38-1.32-2.34-2.53-2.88-4.56-2.03-8.2,2.54-9.12,4.3-.7,1.36-10.71,22.68-10.88,23.36-.11.45-1.8,4.59-3.02,5.81s-8.42,6.8-8.54,6.9c-1.06,1.06-.81,1.86-.65,2.38.02.07.04.13.06.21.25.88.76,1.26,1.15,1.43,1.08.45,2.32-.19,2.43-.26l2.3-1.09c-.41.99-1.03,2.52-1.73,4.33-1.14,2.94-.8,3.89-.36,4.6l.13.2c.45.47,1.01.7,1.66.7h.05c2.07-.04,4.38-2.58,4.42-2.64,5.89-4.88,16.67-13.76,19.35-15.88-1.2,1.98-7.1,11.9-7.16,14.83-.03,1.3.29,2.23.97,2.84,1.12.99,3.05.87,4.78.62,2.84-.41,8.82-4.22,10.61-5.39,1.79,3.78,6.5,5.82,12.47,5.4,5.27-.38,12.73-5.31,16.71-8.21l.22-.16c.44-.3,1.27-1.15,1.28-2.17,0-.42-.13-1.02-.81-1.53ZM91.21,43.27c.5.76.12,2.02-.15,2.36-.07.09-.14.19-.21.29-.75,1.06-2.01,2.83-10.48,4.24-.35.04-.61.05-.81.06.96-1.66,3.97-6.28,8.15-7.35.58-.15,1.24-.27,1.84-.27.71,0,1.34.17,1.66.66ZM64.77,16.15s.12-.01.23.2c.1.19.35,1.03-.31,3.9-.2.86-.53,1.7-.99,2.47-1.49,2.52-5.22,8.72-7.83,11.94-.9,1.11-1.53,1.89-1.96,2.44.09-.17.15-.29.17-.34,2.93-6.29,8.57-18.36,8.98-19.07.39-.68,1.27-1.54,1.71-1.54Z"/>
  <path class="cls-1" d="M227.79,29.66h-3.91l3.18-8.17c.12-.24,1.15-2.37.51-3.74-.24-.51-.68-.86-1.28-1-2.08-.49-3.18.96-3.48,1.8-.03.08-3.12,8.57-3.75,9.95-.21.47-.4.89-.51,1.17-.45,0-1.19-.01-1.19-.01h-3.32c-.11,0-2.66-.16-3.22,1.55-.31.92.07,1.87.59,2.4.58.6,1.67.72,1.92.72h3.6c-.61,1.73-2.42,6.53-4.92,10.39-2.57,3.98-12.75,9.56-16.88,11.71,1.59-3.1,1.36-7.43.9-12.28-.51-5.3,1.34-9.33,1.34-9.34.46-.82.95-2.71-.55-3.96-1.54-1.29-3.02-.41-3.58.23l-.09.11-.02.14s-.19,1.07-1.37,4.11c-1.12,2.88-7.06,9.92-12.48,14.78-5.07,4.55-13.7,8.11-18.27,8.45-3.27.27-4.83-2.31-5.38-3.51,2.17-.26,7.68-1.47,10.48-2.43,2.96-1.01,5.83-2.66,6.72-7.83.26-1.5-.12-2.87-1.12-3.95-1.74-1.9-5.12-2.7-7.58-2.49-9.92,1.28-12.44,10.21-12.67,11.09-.35.65-1.02.94-1.04.94-.21.09-2.07.92-2.48,2.36-.16.65-.05,1.24.31,1.72.63.84,1.87,1.13,2.53,1.22.15.74.71,2.33,2.78,4.85,1.48,1.8,3.89,2.69,7.01,2.69,3.58,0,8.07-1.18,13.11-3.52,8.07-3.75,14.91-11.79,17.13-14.59.95,9.01-1.96,12.12-3.84,13.18-2.39,1.34-3.79-.18-3.84-.24l-.18-.13c-.16-.07-1.56-.66-2.62-.19-.46.21-.79.59-.95,1.11-.25.79-.02,1.65.65,2.42.56.64,1.48,1.26,2.1,1.3,4.27,1.68,10.31-.51,13.57-1.7,4.14-1.5,15.54-10.15,15.64-10.24.05-.04.12-.06.19-.08-.63,1.05-2.99,6.88-3.26,7.67-.16.49-.39,2.01.49,3.2.71.96,1.93,1.43,3.59,1.4,4.24-.09,11.47-5.99,11.8-6.26.09-.08,2.2-2.03,1.16-4.02-.38-.72-.93-.95-1.32-1.01-1.4-.21-2.9,1.24-3.06,1.41-.62.62-5.68,4.12-7.54,4.88-.24.1-.38.13-.47.14.02-.16.12-.46.25-.72,1.96-5.02,8.34-21.44,8.43-21.89.05-.24.23-.75.37-1.12,1.23,0,5.36-.01,6.03-.01,1.06,0,2.26-.69,2.36-1.81.08-.9-.12-1.62-.62-2.13-.77-.79-1.92-.73-1.94-.73ZM156.61,49.77c.95-1.67,3.56-5.76,6.55-6.47.71-.17,1.31-.24,1.83-.24,1.35,0,2.13.46,2.52.8.43.38.57.76.55.92-.06.62-1.11,2.51-5.18,3.87-2.82.94-5.13,1.11-6.28,1.13Z"/>
  <path class="cls-1" d="M134.84,43.13l.33-.1c2.63-.83,11.32-4.16,12.95-12.2.85-4.23.21-7.78-1.85-10.28-1.96-2.36-4.99-3.59-8.89-3.54-7.84.09-13.01,10.78-13.23,11.24l-14.61,32.46c-.8,1.5-.19,3.12.87,3.81l.06.03c.83.4,1.63.45,2.37.14,1.54-.64,2.23-2.62,2.25-2.67.12-.29,11.94-28.51,15.13-34.55,2.67-5.04,5.83-7.2,9.43-6.4,1.12.25,1.82,1.24,2.22,2.02,1.17,2.35,1.13,5.76-.11,8.49-1.5,3.32-5.67,5.31-8.7,6.76-1.04.5-1.94.93-2.57,1.33-2.86,1.72-2.55,4.05-2.11,5.28.46,1.26,1.55,2.27,2.94,2.69,1.78.54,6.06,2.04,7.5,4.29.54.84.66,1.7.35,2.55-.58,1.64-2.7,3.22-5.51,4.14-3.8,1.24-10.6.15-11.76-.26-1.14-.4-2.22-.37-2.97.07-.55.32-.9.86-1.02,1.58-.27,3.35,3.12,4.11,4.94,4.52.19.04.37.08.56.13,1.42.24,2.85.36,4.27.36,5.08,0,9.97-1.52,13.4-4.28,2.66-2.14,4.14-4.76,4.27-7.59.22-4.65-3.31-8.02-10.49-10.04Z"/>
  <path class="cls-1" d="M289.39,12.36c-4.4-1.2-7.05,3.61-7.1,3.71-.22.55-5.47,13.52-6.71,17.37-1.22,3.8-3.79,9.12-4.36,9.85-.44.55-6.89,5.61-10.86,8.67l-.03.02c-.58.52-1.64,1.27-2.1,1.15-.25-.05-1-.21-.92-2.12.07-1.77-.46-3.36-1.32-3.88-.94-.5-1.65-.36-2.08-.16-1.2.56-1.59,2.16-1.66,2.47-.09.42-.05.92,0,1.49.07.83.15,1.77-.18,2.64-.49,1.31-3.71,4.69-7.17,5.33-1.05.19-1.97-.08-2.73-.8-1.28-1.22-1.93-3.63-1.61-6,.47-3.46,3.36-9.07,8.08-10.09,1.54-.33,2.83-.17,3.82.47,1.42.91,1.82,2.52,1.89,2.83.11.51.38.92.8,1.18.6.38,1.46.44,2.56.19.65-.15,1.11-.47,1.38-.95.45-.81.2-1.83-.03-2.52-.3-.9-1.54-2.56-2.52-3.18-3.06-2.56-11.33-2.77-16.5,2.19-5.18,4.98-4.85,13.3-3.51,16.49,1.46,2.68,3.46,4.32,5.94,4.86,3.77.82,7.48-1.17,8.59-2,1.4-1.05,3.66-3.21,4.25-3.78,1.36-.05,4.1-.24,4.92-.92,3.19-1.37,6.16-4.14,7.95-5.8.59-.55,1.06-.98,1.33-1.18.06-.04.11-.08.16-.1,0,.02,0,.04,0,.05,0,0-7.31,19.73-8.14,21.93-1.09,2.89-1.4,4.9-1.07,6.95.1.63,1.19,2.13,3.01,2.88.61.25,1.37.45,2.27.45,1.38,0,3.08-.46,5.03-1.88,6.34-4.63,7.66-15.18,8.1-18.65.05-.37.08-.66.11-.86.27-1.67.66-2.04.68-2.06,2.44-1.99,6.18-5.03,6.46-5.22.39-.26.77-1.08.86-1.86.09-.76-.09-1.4-.51-1.85-1.12-1.21-3.36.34-3.62.53,0,0-5.43,4.08-7.03,5.32-1.49,1.15-1.6,2.78-1.6,2.82,0,.06-.7,6.18-1.34,8.48-.65,2.34-4.33,9.16-6.54,10.05-.52.21-.79.19-.88.11-.21-.2-.13-1.04.07-1.64l.62-1.62c.09-.23,8.93-23.49,9.77-25.83,1-2.79,1.92-3.87,2.54-4.31,9.86-8.01,14.09-18.93,14.68-21.42.79-3.3.43-8.64-3.77-9.79ZM286.9,24.91c-1.27,2.73-4.37,6.49-4.4,6.53l-1.87,2.26,5.5-15.09c.11-.45.53-1.68,1.18-2.04.11-.06.22-.09.33-.09.08,0,.17.02.27.05.13.04.24.17.32.38.61,1.45-.22,5.61-1.33,8Z"/>
  <path class="cls-1" d="M340.47,23.86c.49-.77,1.65-2.64,2.18-3.86.65-1.5,1.33-3.05-.36-4.81-.56-.59-1.29-.85-2.11-.75-1.26.15-2.45,1.12-2.82,1.76-.34.59-1.75,2.48-2.37,3.31-7.72-5.4-18.44-8.76-21.69-9.26-3.76-.58-8.51,1.96-9.63,5.19-1.62,7.75,7.33,15.71,7.77,16.09l6.37,4.14.07.04c.08.04,2.05.89,3.62.27.69-.28,1.2-.79,1.51-1.52,1.17-2.79-1.18-4.01-2.45-4.67l-.2-.1c-3.61-1.98-6.56-4.77-7.1-5.35-.13-.15-3.29-3.63-3.09-7.19.05-.8.32-1.34.82-1.64,1.07-.65,3.01-.18,4.09.31,9.61,3.49,15.66,8.85,16.91,10.03-.81,1.87-5.03,11.54-8.26,18.05-3.13,6.32-5.77,8.69-6.31,9.13l-.46.04c-.57-.21-3.21-1.15-7.98-2.15-5.48-1.15-10.6,1.04-12.7,2.8-1.13.94-2.62,3.19-2.08,5.5.55,2.35,2.93,4.04,7.08,5.02,1.6.38,3.15.54,4.64.54,7.06,0,12.55-3.58,13.6-4.31l.74.1c.7.25,1.38.49,2.03.73,7.72,2.79,12.82,4.63,20.6,1.48,9.06-3.67,10.62-14.22,8.24-22.47-2.32-8.03-9.12-14.93-10.67-16.42ZM345.44,51.31c-.23,1.29-1.51,4.17-4.77,5.79-4.04,2.01-9.72,1.32-16.45-2.02,1.65-2.29,8.68-12.46,12.76-24.53,6.17,5.04,9.16,12.4,8.45,20.75ZM300.84,57.86c.31-.53,1.67-.99,2.84-.99.11,0,.21,0,.32.01.3.02.63.03,1.01.04,1.64.04,4.04.11,7.34,1.41-2.57.91-8.77,2.72-11.45,0-.16-.24-.13-.37-.06-.48Z"/>
  <path class="cls-1" d="M392.85,28.92c2.38-9.78-1.22-13.38-2.75-14.91-2.06-2.21-4.66-3.33-7.57-3.29-3.94.07-7.59,2.27-9.45,4.42-8.59,9.57-16.46,40.72-16.79,42.03-1.42,4.99-.31,6.03.84,6.62l.18.09c1.07.42,2.03.39,2.83-.1,1.73-1.05,2.04-3.87,2.04-3.91.23-.82,2.24-8,2.37-8.74,4.71-17.98,10.58-27.77,11.24-28.83.9-1.46,4.67-5.87,6.81-5.43,3.8.97,5.04,4.8,3.71,11.36-1.63,7.6-6.25,13.29-12.98,16.02-.12.05-.21.09-.27.11l-.1.06c-1.75,1.39-1.46,3.33-1.01,4.24.1.13,9.6,12.9,11.55,15.74,1.36,2,2.58,2.72,3.8,2.72.73,0,1.46-.26,2.22-.65.6-.31.99-.77,1.16-1.37.36-1.27-.47-2.69-.5-2.75l-1.67-1.75-9.25-12.4c.84-.42,2.11-1.35,3.66-2.69,3.62-3.12,7.67-7.23,9.95-16.61Z"/>
</svg>